<?xml version="1.0" encoding="utf-8"?>
<!-- Generator: Adobe Illustrator 23.1.0, SVG Export Plug-In . SVG Version: 6.00 Build 0)  -->
<svg version="1.1" id="Layer_1" xmlns="http://www.w3.org/2000/svg" xmlns:xlink="http://www.w3.org/1999/xlink" x="0px" y="0px"
	 viewBox="0 0 950.2 2000.1" style="enable-background:new 0 0 950.2 2000.1;" xml:space="preserve">
<style type="text/css">
	.st0{fill:url(#SVGID_1_);}
	.st1{opacity:0.51;fill:#F4F2F2;enable-background:new    ;}
	.st2{fill:url(#SVGID_2_);stroke:#FFFFFF;stroke-width:0.13;stroke-miterlimit:10;}
	.st3{fill:url(#SVGID_3_);}
	.st4{fill:url(#SVGID_4_);}
	.st5{fill:url(#SVGID_5_);}
	.st6{fill:none;stroke:#2545E5;stroke-width:8;stroke-miterlimit:10;stroke-opacity:0.9;}
	.st7{clip-path:url(#XMLID_3_);}
	.st8{fill:url(#SVGID_6_);}
	.st9{fill:url(#SVGID_7_);}
	.st10{fill:url(#SVGID_8_);}
	.st11{fill:url(#SVGID_9_);}
	.st12{fill:url(#SVGID_10_);}
	.st13{fill:none;stroke:#2545E5;stroke-width:2;stroke-miterlimit:10;}
	.st14{fill:#FFFFFF;}
</style>
<title>Asset 10</title>
<g>
	<g>
		<g id="board">
			<g>
				
					<radialGradient id="SVGID_1_" cx="379.9107" cy="284.2425" r="315.6498" gradientTransform="matrix(1.189 0 0 -1.1851 -10.1909 2206.7651)" gradientUnits="userSpaceOnUse">
					<stop  offset="0.12" style="stop-color:#0B53B6"/>
					<stop  offset="0.28" style="stop-color:#0B44AC"/>
					<stop  offset="0.75" style="stop-color:#0B1E92"/>
					<stop  offset="1" style="stop-color:#0B0F88"/>
				</radialGradient>
				<path class="st0" d="M945.4,1179.8v593.5c-6.2,61-99.9,102.9-99.9,102.9s-152.9,56.6-262.4,97l-57.1,21.1
					c-32.5,7.3-66.2,7.7-98.9,1H427c-23.4-8.7-45.4-16.8-66.3-24.4C31.5,1850.3,3.7,1849.8,3.7,1731v-551.2H945.4z"/>
				<path class="st1" d="M473.9,1508.8c198.8,0,365.6,146.5,410.6,343.7c26.2-18.2,56.3-46.1,59.7-79.7V1417H3.7v313.5
					c0,61.3,7.4,91.1,59.7,122.2C108.3,1655.3,275.1,1508.8,473.9,1508.8z"/>
				
					<linearGradient id="SVGID_2_" gradientUnits="userSpaceOnUse" x1="474.5415" y1="1757.7531" x2="474.5415" y2="294.143" gradientTransform="matrix(1 0 0 -1 0 2001)">
					<stop  offset="0" style="stop-color:#D5E3ED"/>
					<stop  offset="0.8" style="stop-color:#F9FBFC"/>
					<stop  offset="0.92" style="stop-color:#FFFFFF"/>
				</linearGradient>
				<path class="st2" d="M844.4,1602h-42c0,0-330.1,268.7-658.4,0h-39.2c-55.8,0-101.1-52.2-101.1-116.7V171.5h941.7v1314
					C945.4,1549.7,900.2,1602,844.4,1602z"/>
				
					<linearGradient id="SVGID_3_" gradientUnits="userSpaceOnUse" x1="476.325" y1="1822.228" x2="476.325" y2="1673.3658" gradientTransform="matrix(1 0 0 -1 0 2001)">
					<stop  offset="0" style="stop-color:#0B53B6"/>
					<stop  offset="0.19" style="stop-color:#0B44AC"/>
					<stop  offset="0.72" style="stop-color:#0B1E92"/>
					<stop  offset="1" style="stop-color:#0B0F88"/>
				</linearGradient>
				<rect x="2.5" y="171.5" class="st3" width="947.7" height="157.6"/>
			</g>
			<g>
				
					<radialGradient id="SVGID_4_" cx="243.1915" cy="1533.4005" r="481.16" gradientTransform="matrix(0.8371 0.5471 0.5471 -0.8371 -543.5651 1517.4733)" gradientUnits="userSpaceOnUse">
					<stop  offset="0" style="stop-color:#0B0F88;stop-opacity:0.8"/>
					<stop  offset="7.709660e-02" style="stop-color:#2B2E90;stop-opacity:0.7248"/>
					<stop  offset="0.1897" style="stop-color:#535599;stop-opacity:0.615"/>
					<stop  offset="0.306" style="stop-color:#7476A1;stop-opacity:0.5016"/>
					<stop  offset="0.4248" style="stop-color:#8D8FA7;stop-opacity:0.3857"/>
					<stop  offset="0.5473" style="stop-color:#A0A1AC;stop-opacity:0.2662"/>
					<stop  offset="0.6759" style="stop-color:#AAACAE;stop-opacity:0.1408"/>
					<stop  offset="0.8203" style="stop-color:#AEAFAF;stop-opacity:0"/>
				</radialGradient>
				<circle class="st4" cx="479.1" cy="349.3" r="398.5"/>
				<g>
					
						<linearGradient id="SVGID_5_" gradientUnits="userSpaceOnUse" x1="485.9866" y1="1827.4921" x2="482.6869" y2="1558.3119" gradientTransform="matrix(1 0 0 -1 0 2001)">
						<stop  offset="4.000000e-02" style="stop-color:#D5E3ED"/>
						<stop  offset="0.99" style="stop-color:#FFFFFF"/>
					</linearGradient>
					<polygon class="st5" points="677.5,365.1 485,476.3 292.5,365.1 292.5,142.9 485,31.7 677.5,142.9 					"/>
					<polygon class="st6" points="658.5,355.9 485,456.1 311.5,355.9 311.5,155.6 485,55.4 658.5,155.6 					"/>
					<g>
						<defs>
							<polygon id="XMLID_1_" points="659.8,347.4 495.2,442.5 330.6,347.4 330.6,157.4 495.2,62.4 659.8,157.4 							"/>
						</defs>
						<clipPath id="XMLID_3_">
							<use xlink:href="#XMLID_1_"  style="overflow:visible;"/>
						</clipPath>
						<g class="st7">
							<title>skl1</title>
							<g>
								<g id="Layer_1-2_1_">
									
										<linearGradient id="SVGID_6_" gradientUnits="userSpaceOnUse" x1="302.2026" y1="2076.4607" x2="396.3799" y2="2248.5635" gradientTransform="matrix(1 0 0 -1 92.575 2391.6799)">
										<stop  offset="0" style="stop-color:#0B0094"/>
										<stop  offset="1" style="stop-color:#55D6FF"/>
									</linearGradient>
									<path class="st8" d="M462,303.6c-1.9-5.9-10.8-6.6-13.3-4v-20.4c0-7.9-8.9-27-19-36.3c-2.6-2.2-7.3-16.7-9.6-23
										c-0.8-2.2-2.2-4-4.1-5.2c-2.2-1.5-4.9-2-7.5-1.4c-1.8,0.5-3.3,1.9-3.6,3.8c-1.8,8.3,3.4,18.5,3.4,18.5l17.1,37.6
										c-19.5-1.8-28.5-22.6-32.2-47.3c-0.4-2.7-0.5-5.4-0.3-8.1c0.6-7.7,0.2-30.1,0.2-35.6c0-6.6-6.9-6.6-6.9-6.6h-2.3
										c-2.9,0-5.4,1.9-6.4,4.6c-27.1,75.2,27.9,124.1,36.6,131.2c0,0-6.4,2.6-7.6,4c-3.2,3.4-1.3,9.9-1.3,9.9s8.9,27,10.8,31.6
										c1.9,4.6,7.6,4,9.5,3.3s39.9-13.8,43.1-15.2c3.2-1.3,5.7-6.6,3.8-11.2C470.9,330,463.9,309.6,462,303.6z M451,331.5
										c-4.4,0.2-8.1-3.3-8.2-7.7c-0.1-4.2,3.3-7.9,7.5-8.1c4.4-0.2,8.2,3.2,8.3,7.6c0.1,2-0.6,4.1-2.1,5.8
										C455.1,330.7,453.1,331.5,451,331.5L451,331.5L451,331.5z"/>
									
										<linearGradient id="SVGID_7_" gradientUnits="userSpaceOnUse" x1="412.356" y1="2015.8962" x2="506.5333" y2="2187.999" gradientTransform="matrix(1 0 0 -1 92.575 2391.6799)">
										<stop  offset="0" style="stop-color:#0B0094"/>
										<stop  offset="1" style="stop-color:#55D6FF"/>
									</linearGradient>
									<path class="st9" d="M555.6,313.9c8.7-7.1,63.7-56,36.6-131.2c-0.9-2.7-3.5-4.6-6.4-4.6h-2.3c0,0-7,0-7,6.6
										c0,5.6-0.4,27.9,0.2,35.6c0.2,2.7,0.1,5.4-0.3,8.1c-3.7,24.7-12.7,45.4-32.2,47.3l17.1-37.6c0,0,5.2-10.2,3.4-18.5
										c-0.4-1.9-1.8-3.3-3.6-3.8c-2.6-0.6-5.3-0.1-7.5,1.4c-1.9,1.2-3.4,3.1-4.1,5.2c-2.3,6.3-7,20.8-9.6,23
										c-10.1,9.2-19,28.4-19,36.3V302c-2.5-2.6-11.4-2-13.3,4c-1.9,5.9-8.9,26.4-10.1,30.3c-1.9,4.6,0.6,9.9,3.8,11.2
										c3.2,1.3,41.2,14.5,43.1,15.2c1.9,0.7,7.6,1.3,9.5-3.3c1.9-4.6,10.8-31.7,10.8-31.7s2-6.5-1.3-9.9
										C561.9,316.5,555.6,313.9,555.6,313.9z M518.3,333.5c-4.4,0.2-8-3.2-8.2-7.6c-0.2-4.4,3.2-8,7.6-8.2c4.4-0.2,8,3.2,8.2,7.6
										c0,0.1,0,0.2,0,0.3C526,329.9,522.5,333.4,518.3,333.5L518.3,333.5z"/>
									
										<linearGradient id="SVGID_8_" gradientUnits="userSpaceOnUse" x1="340.2629" y1="2055.9004" x2="434.2169" y2="2227.5952" gradientTransform="matrix(1 0 0 -1 92.575 2391.6799)">
										<stop  offset="0" style="stop-color:#0B0094"/>
										<stop  offset="1" style="stop-color:#55D6FF"/>
									</linearGradient>
									<path class="st10" d="M506.1,268.1c0.9,0.8,2.3,0.8,3.1,0c0,0,0-0.1,0.1-0.1l6.6-7.4c0.7-0.8,0.7-2,0-2.8
										c0,0-7.2-8.1-7.5-7.8c0.9-0.3,1.9-4.6,1.9-4.6h11.5c0.7,0,1.3-0.6,1.3-1.3v-11.6c0-1.2-0.9-2.2-2.1-2.2c0,0,0,0,0,0
										c0,0-10.2,0.3-10.5,0c-0.1-1.7-0.8-3.3-1.9-4.6l7.6-7.9c0.7-0.7,0.7-1.9,0-2.6l-7.6-7.9c-0.7-0.7-1.7-0.7-2.4-0.1
										c0,0-0.1,0.1-0.1,0.1l-7.6,7.9c-2.2-2.3-4.4-2-4.4-2v-10.8c0-1.2-0.9-2.3-2.2-2.3c0,0,0,0,0,0h-9.8c-1.1,0-1.9,0.9-1.9,1.9
										c0,0,0,0,0,0c0,0-0.3,10.9,0,11.2c-2.9-0.3-5.1,2-5.1,2l-8.4-8c-0.5-0.5-1.3-0.5-1.8,0c0,0,0,0,0,0l-7.9,8.1
										c-0.5,0.5-0.5,1.3,0,1.8l7.5,8.3c-0.9,1.5-1.4,3.2-1.6,4.9c-0.3,0.3-10.5,0-10.5,0c-1.3,0-2.4,1.1-2.4,2.4V243
										c0,1.3,1,2.4,2.3,2.4h10.5c0,0,0.3,3,1.9,4.6c0.3,0.3-7.6,7.7-7.6,7.7c-0.8,0.8-0.8,2.1,0,3l7.3,7.5c0.8,0.8,2.1,0.9,3,0.1
										c0,0,0.1-0.1,0.1-0.1c0,0,7.2-8,7.5-7.6c1.6,1.6,5.1,2,5.1,2v11.2c0,1,0.8,1.8,1.8,1.9c0,0,0,0,0,0h9.8
										c1.3,0,2.3-1.1,2.3-2.4c0,0-0.3-10.4,0-10.7c1.6,0.3,4.4-2,4.4-2L506.1,268.1z M486.9,250.1c-6.4,0-11.6-5.4-11.6-12
										s5.2-12,11.6-12s11.6,5.4,11.6,12S493.3,250.1,486.9,250.1L486.9,250.1z"/>
									
										<linearGradient id="SVGID_9_" gradientUnits="userSpaceOnUse" x1="349.8577" y1="2051.6501" x2="443.6528" y2="2223.0542" gradientTransform="matrix(1 0 0 -1 92.575 2391.6799)">
										<stop  offset="0" style="stop-color:#0B0094"/>
										<stop  offset="1" style="stop-color:#55D6FF"/>
									</linearGradient>
									<path class="st11" d="M504.5,171.1H515c0,0,0.3,3,1.9,4.6c0.3,0.3-7.6,7.7-7.6,7.7c-0.8,0.8-0.8,2.1,0,3l7.3,7.5
										c0.8,0.8,2.1,0.9,3,0.1c0,0,0.1-0.1,0.1-0.1c0,0,7.2-8,7.5-7.6c1.6,1.6,5.1,2,5.1,2v12.4c0,1,0.8,1.8,1.8,1.9h9.7
										c1.3,0,2.3-1.1,2.3-2.4c0,0-0.3-10.4,0-10.7c1.6,0.3,4.4-2,4.4-2l7.8,7.6c0.9,0.8,2.2,0.8,3.1,0c0,0,0.1-0.1,0.1-0.1
										l6.6-7.4c0.7-0.8,0.7-2,0-2.8c0,0-7.2-8.1-7.5-7.8c0.9-0.3,1.9-4.6,1.9-4.6H574c0.7,0,1.3-0.6,1.3-1.3c0,0,0,0,0,0V159
										c0-1.2-0.9-2.2-2.1-2.3c0,0,0,0,0,0c0,0-10.2,0.3-10.5,0c-0.1-1.7-0.8-3.4-1.9-4.7l7.6-8.1c0.7-0.8,0.7-1.9,0-2.7l-7.6-8.1
										c-0.7-0.7-1.7-0.8-2.4-0.1c0,0-0.1,0.1-0.1,0.1l-7.6,8.1c-2.2-2.4-4.4-2-4.4-2v-11.1c0-1.3-1-2.3-2.2-2.4h-9.9
										c-1.1,0-1.9,0.9-1.9,1.9c0,0,0,0,0,0c0,0-0.3,10.9,0,11.2c-2.9-0.3-5.1,2-5.1,2l-8.4-8c-0.5-0.5-1.3-0.5-1.8,0c0,0,0,0,0,0
										l-7.9,8.1c-0.5,0.5-0.5,1.3,0,1.8l7.5,8.3c-0.9,1.5-1.4,3.2-1.6,4.9c-0.3,0.3-10.5,0-10.5,0c-1.3,0-2.4,1.1-2.4,2.4v10.2
										C502.1,170,503.1,171.1,504.5,171.1C504.5,171.1,504.5,171.1,504.5,171.1z M538.8,152c6.4,0,11.6,5.4,11.6,12
										c0,6.6-5.2,12-11.6,12s-11.6-5.4-11.6-12C527.3,157.4,532.4,152,538.8,152z"/>
									
										<linearGradient id="SVGID_10_" gradientUnits="userSpaceOnUse" x1="271.1981" y1="2094.0496" x2="364.9899" y2="2265.4478" gradientTransform="matrix(1 0 0 -1 92.575 2391.6799)">
										<stop  offset="0" style="stop-color:#0B0094"/>
										<stop  offset="1" style="stop-color:#55D6FF"/>
									</linearGradient>
									<path class="st12" d="M402.2,172.2h10.8c0,0,0.3,3,1.9,4.6c0.3,0.3-7.4,7.7-7.4,7.7c-0.8,0.8-0.8,2.1,0,3l7.2,7.5
										c0.8,0.8,2.1,0.9,2.9,0.1c0,0,0.1-0.1,0.1-0.1c0,0,7-8,7.3-7.6c1.6,1.6,5,2,5,2v11.3c0,1,0.8,1.8,1.8,1.9h9.8
										c1.3,0,2.3-1.1,2.3-2.4c0,0-0.3-10.4,0-10.7c1.6,0.3,4.4-2,4.4-2l7.8,7.6c0.9,0.9,2.3,0.8,3.1,0c0,0,0.1-0.1,0.1-0.1
										l6.6-7.4c0.7-0.8,0.7-2,0-2.8c0,0-7.2-8.1-7.5-7.8c0.9-0.3,1.9-4.6,1.9-4.6h11.4c0.7,0,1.3-0.6,1.3-1.3c0,0,0,0,0,0v-11.6
										c0-1.2-0.9-2.2-2.1-2.2c0,0-10.2,0.3-10.5,0c-0.1-1.7-0.8-3.3-1.9-4.6l7.6-7.9c0.7-0.7,0.7-1.9,0-2.6l-7.6-7.9
										c-0.7-0.7-1.7-0.7-2.4-0.1c0,0-0.1,0.1-0.1,0.1l-7.6,7.9c-2.2-2.3-4.4-2-4.4-2v-10.8c0-1.2-1-2.3-2.2-2.3c0,0,0,0,0,0h-10
										c-1.1,0-1.9,0.9-1.9,1.9c0,0,0,0,0,0c0,0-0.3,10.9,0,11.2c-2.9-0.3-5.1,2-5.1,2l-8.4-8c-0.5-0.5-1.3-0.5-1.8,0c0,0,0,0,0,0
										l-7.8,8.1c-0.5,0.5-0.5,1.3,0,1.8l7.5,8.3c-0.9,1.5-1.4,3.2-1.6,4.9c-0.3,0.3-10.4,0-10.4,0c-1.3,0-2.4,1.1-2.4,2.4v10.2
										C399.8,171.1,400.9,172.2,402.2,172.2C402.2,172.2,402.2,172.2,402.2,172.2z M436.8,152.5c6.4,0,11.6,5.4,11.6,12
										c0,6.6-5.2,12-11.6,12s-11.6-5.4-11.6-12S430.4,152.5,436.8,152.5L436.8,152.5z"/>
								</g>
							</g>
						</g>
					</g>
					<polygon class="st13" points="645.3,345.9 485.2,438.3 325.2,345.9 325.2,161.1 485.2,68.7 645.3,161.1 					"/>
				</g>
			</g>
		</g>
	</g>
</g>
<g>
	<title>skl1</title>
	<g>
		<g id="Layer_1-2_2_">
			<path class="st14" d="M459.2,1899c-1.1-3.4-6.2-3.8-7.6-2.3V1885c0-4.5-5.1-15.4-10.9-20.7c-1.5-1.2-4.2-9.6-5.5-13.1
				c-0.4-1.2-1.3-2.3-2.4-3c-1.3-0.8-2.8-1.1-4.3-0.8c-1.1,0.3-1.9,1.1-2.1,2.2c-1,4.7,1.9,10.6,1.9,10.6l9.8,21.5
				c-11.1-1.1-16.3-12.9-18.4-27c-0.2-1.5-0.3-3.1-0.1-4.6c0.3-4.4,0.1-17.2,0.1-20.4c0-3.8-4-3.8-4-3.8h-1.3
				c-1.6,0-3.1,1.1-3.6,2.6c-15.5,43,15.9,70.9,20.9,75c0,0-3.6,1.5-4.3,2.3c-1.8,1.9-0.7,5.7-0.7,5.7s5.1,15.4,6.2,18.1
				c1.1,2.6,4.3,2.3,5.4,1.9s22.8-7.9,24.6-8.7s3.3-3.8,2.2-6.4C464.3,1914,460.3,1902.4,459.2,1899z M453.6,1914.6
				c-2.8,0.1-5.1-2.4-4.6-5.3c0.3-1.7,1.6-3.1,3.3-3.6c2.9-0.7,5.6,1.4,5.7,4.2c0,1.2-0.4,2.4-1.3,3.4
				C455.8,1914.2,454.7,1914.6,453.6,1914.6L453.6,1914.6L453.6,1914.6z"/>
			<path class="st14" d="M512.5,1904.5c5-4.1,36.4-32,20.9-75c-0.5-1.6-2-2.6-3.7-2.6h-1.3c0,0-4,0-4,3.8c0,3.2-0.3,16,0.1,20.4
				c0.1,1.5,0.1,3.1-0.2,4.6c-2.1,14.1-7.3,26-18.4,27l9.8-21.5c0,0,3-5.8,1.9-10.6c-0.2-1.1-1-1.9-2.1-2.2c-1.5-0.3-3-0.1-4.3,0.8
				c-1.1,0.7-1.9,1.7-2.4,3c-1.3,3.6-4,11.9-5.5,13.1c-5.8,5.3-10.9,16.2-10.9,20.7v11.7c-1.5-1.5-6.5-1.1-7.6,2.3
				c-1.1,3.4-5.1,15.1-5.8,17.3c-1.1,2.6,0.4,5.7,2.2,6.4c1.8,0.8,23.5,8.3,24.6,8.7c1.1,0.4,4.3,0.8,5.4-1.9
				c1.1-2.6,6.2-18.1,6.2-18.1s1.1-3.7-0.7-5.6C516.1,1906,512.5,1904.5,512.5,1904.5z M491.5,1915.8c-2.5,0.1-4.6-1.8-4.7-4.3
				s1.8-4.6,4.3-4.7c2.5-0.1,4.6,1.8,4.7,4.3c0,0.1,0,0.1,0,0.2C495.9,1913.7,494,1915.7,491.5,1915.8L491.5,1915.8z"/>
			<path class="st14" d="M484.3,1878.6c0.5,0.5,1.3,0.5,1.7,0c0,0,0,0,0,0l3.7-4.1c0.4-0.5,0.4-1.1,0-1.6c0,0-4-4.6-4.2-4.4
				c0.5-0.2,1.1-2.6,1.1-2.6h7.2c0.4,0,0.7-0.3,0.7-0.8v-6.7c0-0.7-0.5-1.2-1.2-1.3c0,0,0,0,0,0c0,0-6,0.2-6.2,0
				c-0.1-1-0.5-1.9-1.1-2.6l4.4-4.5c0.4-0.4,0.4-1.1,0-1.5l-4.4-4.5c-0.4-0.4-1-0.4-1.4,0c0,0,0,0,0,0l-4.4,4.5
				c-1.3-1.3-2.6-1.1-2.6-1.1v-6.2c0-0.7-0.6-1.3-1.3-1.3c0,0,0,0,0,0h-5.6c-0.6,0-1.1,0.5-1.1,1.1c0,0,0,0,0,0c0,0-0.2,6.2,0,6.4
				c-1.6-0.2-2.9,1.1-2.9,1.1l-4.7-4.6c-0.3-0.3-0.7-0.3-1,0c0,0,0,0,0,0l-4.4,4.6c-0.3,0.3-0.3,0.7,0,1l4.2,4.7
				c-0.5,0.9-0.8,1.8-0.9,2.8c-0.2,0.2-5.9,0-5.9,0c-0.8,0-1.4,0.6-1.3,1.4v5.9c0,0.7,0.6,1.4,1.3,1.4h5.9c0,0,0.2,1.7,1.1,2.6
				c0.2,0.2-4.3,4.4-4.3,4.4c-0.4,0.5-0.4,1.2,0,1.7l4.1,4.3c0.4,0.5,1.2,0.5,1.7,0c0,0,0,0,0,0c0,0,4-4.6,4.2-4.4
				c0.9,0.9,2.9,1.1,2.9,1.1v6.1c0,0.6,0.4,1,1,1c0,0,0,0,0,0h5.5c0.7,0,1.3-0.6,1.3-1.4c0,0-0.2-5.8,0-6c0.9,0.2,2.5-1.1,2.5-1.1
				L484.3,1878.6z M473.6,1867.9c-3.6,0-6.6-3.1-6.6-6.9c0-3.8,3-6.9,6.6-6.9s6.6,3.1,6.6,6.9
				C480.2,1864.8,477.3,1867.9,473.6,1867.9L473.6,1867.9z"/>
			<path class="st14" d="M483.9,1822.9h5.9c0,0,0.2,1.7,1.1,2.6c0.2,0.2-4.3,4.4-4.3,4.4c-0.4,0.5-0.4,1.2,0,1.7l4.1,4.3
				c0.4,0.5,1.2,0.5,1.7,0.1c0,0,0,0,0.1-0.1c0,0,4-4.6,4.2-4.4c0.9,0.9,2.9,1.1,2.9,1.1v7.1c0,0.6,0.4,1,1,1h5.5
				c0.7,0,1.3-0.6,1.3-1.4c0,0-0.2-5.8,0-6c0.9,0.2,2.5-1.1,2.5-1.1l4.4,4.3c0.5,0.5,1.3,0.5,1.7,0c0,0,0,0,0,0l3.7-4.1
				c0.4-0.5,0.4-1.1,0-1.6c0,0-4-4.6-4.2-4.4c0.5-0.2,1.1-2.6,1.1-2.6h7.2c0.4,0,0.7-0.4,0.7-0.8c0,0,0,0,0,0v-6.9
				c0-0.7-0.5-1.3-1.2-1.3c0,0,0,0,0,0c0,0-6,0.2-6.2,0c-0.1-1-0.5-2-1.1-2.7l4.4-4.7c0.4-0.4,0.4-1.1,0-1.6l-4.4-4.7
				c-0.4-0.4-1-0.4-1.4,0c0,0,0,0,0,0l-4.4,4.7c-1.3-1.4-2.6-1.2-2.6-1.2v-6.5c0-0.7-0.6-1.4-1.3-1.4h-5.7c-0.6,0-1.1,0.5-1.1,1.1
				c0,0,0,0,0,0c0,0-0.2,6.2,0,6.4c-1.6-0.2-2.9,1.1-2.9,1.1l-4.7-4.6c-0.3-0.3-0.7-0.3-1,0c0,0,0,0,0,0l-4.4,4.6
				c-0.3,0.3-0.3,0.7,0,1l4.2,4.8c-0.5,0.9-0.8,1.8-0.9,2.8c-0.2,0.2-5.9,0-5.9,0c-0.8,0-1.4,0.6-1.3,1.4v5.9
				C482.6,1822.2,483.2,1822.8,483.9,1822.9C483.9,1822.9,483.9,1822.9,483.9,1822.9z M503.3,1812c3.6,0,6.6,3.1,6.6,6.9
				c0,3.8-3,6.9-6.6,6.9c-3.6,0-6.6-3.1-6.6-6.9C496.7,1815.1,499.6,1812,503.3,1812z"/>
			<path class="st14" d="M425.8,1823.9h6.1c0,0,0.2,1.7,1.1,2.6c0.2,0.2-4.2,4.3-4.2,4.3c-0.4,0.5-0.4,1.2,0,1.7l4,4.2
				c0.4,0.5,1.2,0.5,1.6,0.1c0,0,0,0,0.1-0.1c0,0,4-4.5,4.1-4.3c0.9,0.9,2.8,1.1,2.8,1.1v6.3c0,0.6,0.4,1,1,1h4.6
				c0.8,0,1.4-0.6,1.4-1.4c0,0-0.2-5.8,0-6c0.9,0.2,2.6-1.1,2.6-1.1l4.6,4.3c0.5,0.5,1.3,0.5,1.8,0c0,0,0,0,0,0l3.9-4.1
				c0.4-0.5,0.4-1.1,0-1.6c0,0-4.2-4.6-4.4-4.4c0.6-0.2,1.1-2.6,1.1-2.6h6.7c0.4,0,0.7-0.3,0.7-0.7c0,0,0,0,0,0v-6.5
				c0-0.7-0.5-1.2-1.2-1.2c0,0-6,0.2-6.2,0c-0.1-1-0.5-1.9-1.1-2.6l4.4-4.4c0.4-0.4,0.4-1.1,0-1.5l-4.4-4.4c-0.4-0.4-1-0.4-1.4,0
				c0,0,0,0,0,0l-4.4,4.4c-1.3-1.3-2.6-1.1-2.6-1.1v-6.6c0-0.7-0.5-1.3-1.2-1.3c0,0,0,0,0,0h-5.4c-0.6,0-1,0.5-1,1.1c0,0,0,0,0,0
				c0,0-0.2,6.2,0,6.4c-1.6-0.2-2.8,1.1-2.8,1.1l-4.5-4.6c-0.3-0.3-0.7-0.3-1,0c0,0,0,0,0,0l-4.3,4.6c-0.3,0.3-0.3,0.7,0,1l4.1,4.7
				c-0.5,0.9-0.8,1.8-0.9,2.8c-0.2,0.2-5.7,0-5.7,0c-0.7,0-1.3,0.6-1.3,1.4v5.9C424.6,1823.2,425.1,1823.8,425.8,1823.9
				C425.8,1823.9,425.8,1823.9,425.8,1823.9z M445,1812.9c3.6,0,6.6,3.1,6.6,6.9c0,3.8-3,6.9-6.6,6.9c-3.7,0-6.6-3.1-6.6-6.9
				C438.4,1815.9,441.3,1812.9,445,1812.9L445,1812.9z"/>
		</g>
	</g>
</g>
</svg>
